<?xml version="1.0" encoding="UTF-8" standalone="no"?> <svg width="24" height="24" viewBox="0 0 24 24" fill="none" xmlns="http://www.w3.org/2000/svg">
<path fill-rule="evenodd" clip-rule="evenodd" d="M18.7071 2.29289C19.0976 2.68342 19.0976 3.31658 18.7071 3.70711L14.7074 7.70677C14.7529 7.80185 14.7936 7.8997 14.829 8H23C23.5523 8 24 8.44772 24 9C24 9.55228 23.5523 10 23 10H22.8471L21.2649 19.4932C21.0238 20.9398 19.7723 22 18.3057 22H5.69425C4.22774 22 2.97617 20.9398 2.73507 19.4932L1.15287 10H1C0.447715 10 0 9.55228 0 9C0 8.44772 0.447715 8 1 8H9.17071C9.58254 6.83481 10.6938 6 12 6C12.4628 6 12.9016 6.1052 13.2932 6.29256L17.2929 2.29289C17.6834 1.90237 18.3166 1.90237 18.7071 2.29289ZM14.8293 10C14.4175 11.1652 13.3062 12 12 12C10.6938 12 9.58254 11.1652 9.17071 10H3.18046L4.70786 19.1644C4.78822 19.6466 5.20542 20 5.69425 20H18.3057C18.7946 20 19.2118 19.6466 19.2921 19.1644L20.8195 10H14.8293ZM12 8C11.4477 8 11 8.44772 11 9C11 9.55228 11.4477 10 12 10C12.5523 10 13 9.55228 13 9C13 8.72358 12.8892 8.47495 12.7071 8.29289C12.525 8.11083 12.2764 8 12 8ZM7.3356 13.0136C7.88037 12.9228 8.3956 13.2908 8.48639 13.8356L8.98639 16.8356C9.07719 17.3804 8.70917 17.8956 8.1644 17.9864C7.61963 18.0772 7.1044 17.7092 7.01361 17.1644L6.51361 14.1644C6.42281 13.6196 6.79083 13.1044 7.3356 13.0136ZM16.6644 13.0136C17.2092 13.1044 17.5772 13.6196 17.4864 14.1644L16.9864 17.1644C16.8956 17.7092 16.3804 18.0772 15.8356 17.9864C15.2908 17.8956 14.9228 17.3804 15.0136 16.8356L15.5136 13.8356C15.6044 13.2908 16.1196 12.9228 16.6644 13.0136ZM12 13C12.5523 13 13 13.4477 13 14V17C13 17.5523 12.5523 18 12 18C11.4477 18 11 17.5523 11 17V14C11 13.4477 11.4477 13 12 13Z" fill="#000000"/>
</svg>
